<svg xmlns="http://www.w3.org/2000/svg" xmlns:xlink="http://www.w3.org/1999/xlink" xmlns:a="http://ns.adobe.com/AdobeSVGViewerExtensions/3.0/" version="1.1" x="0px" y="0px" width="1018px" height="424px" viewBox="-0.699 -0.048 1018 424" overflow="visible" enable-background="new -0.699 -0.048 1018 424" xml:space="preserve"><style>.style0{fill:	#480E3D;}</style><defs></defs><path d="M304.482 9.666c-55.039-22.551-119.715-3.586-161.83 35.6 c-38.887 36.191-58.426 94.998-36.311 145.123c12.543 28.4 36.3 45.8 61.9 61.637c19.551 12.1 32.6 31.2 37.9 53.4 c9.236 38.975-13.184 89.006-55.221 96.811c-22.818 4.238-45.922-8.488-63.623-21.68c-21.098-15.725-37.969-37.855-42.93-64.037 c-3.502-18.477 2.721-36.561 14.074-51.074c6.295-8.043-5.373-10.186-11.203-10c-9.385 0.297-23.301 3.412-29.479 11.3 c-37.051 47.361-10.953 102.3 33.2 133.758c47.705 33.9 108.4 28.7 156.111-2.783 c37.727-24.91 55.213-73.797 39.682-116.457c-8.225-22.594-25.49-38.883-45.881-50.596c-26.154-15.02-46.809-37.76-55.596-66.842 c-15.373-50.877 14.434-110.965 60.068-135.576c37.244-20.086 89.5 5.6 110.9 38.123c19.791 30.1 22.6 78.539-1.1 107.4 c-0.222 0.27-0.425 0.512-0.619 0.743c-2.649-1.43-4.984-3.473-7.209-5.46c-20.004-17.863-27.293-49.57-32.881-74.482 c-1.463-6.518-14.404-4.676-18.566-4.189c-47.623 5.576-77.984 43.551-85.01 89.102c-2.18 14.1 42.1 5.9 44.014-6.742 c2-12.965 6.07-25.426 11.74-37.24c2.125-4.427 4.706-8.516 7.616-12.397c10.586 38.4 31.3 83.1 77.6 73.5 c42.561-8.906 63.438-43.723 64.205-85.402C376.876 64.2 346.6 26.9 304.5 9.666z M309.289 179.1 c0.199-0.146 0.362-0.269 0.506-0.38c0.009-0.003 0.021-0.008 0.03-0.011C309.656 178.9 309.5 179 309.3 179.146z" class="style0"/><path d="M325.521 310.61c-20.384 1.267-41.213 10.818-54.777 23.899c-16.121 15.545-17.127 50.6 7 58.7 c24.152 8.1 54.916-6.256 72.258-22.646c18.254-17.252 26.633-42.807 13.352-65.596C357.96 295.7 332.3 303.2 325.5 310.6 z M305.646 377.074c0.307-0.224 0.639-0.395 0.989-0.522C306.305 376.7 306 376.9 305.6 377.074z M325.585 357.6 c-2.83 5.643-7.486 10.711-12.334 14.684c-1.704 1.396-3.445 2.526-5.294 3.566c-0.323 0.067-0.62 0.153-0.717 0.2 c-7.229-1.678-9.504-21.313-8.174-28.613c2.734-15.023 12.424-20.693 25.314-14.391c1.491 0.7 3.6 1 6.1 0.9 C331.204 341.8 329.6 349.6 325.6 357.585z" class="style0"/><path d="M388.292 192.005c18.523 10.3 43.1 5.4 62.858-2.521c2.519 3.9 7 7 14.3 8.6 c16.81 3.9 35.9 0.1 51.976-8.578c2.606 3.6 7 6.5 13.7 8.191c19.108 4.9 40.586-0.71 58.173-11.587 c1.679 2.2 3.9 4.2 6.9 5.869c18.521 10.3 43.1 5.4 62.856-2.521c2.52 3.9 7 7 14.3 8.6 c17.427 4 37.305-0.201 53.74-9.547c1.103 2.4 2.5 4.7 4.4 6.787c13.393 15 41.9 4 56.078-3.41 c3.924-2.048 7.753-4.353 11.507-6.829c1.313 5.5 5.4 10 13.7 12.544c17.958 5.4 38.234-0.528 54.901-11.236 c1.656 2.1 3.9 4 6.7 5.586c17.415 9.7 40.2 5.9 59.27-1.136c1.928 3.2 5.4 5.7 10.8 7.3 c25.932 7.3 56.951-10.209 71.635-30.891c4.098-5.768-3.488-7.199-7.908-7.061c-6.354 0.201-16.799 2.336-20.807 8 c-2.406 3.387-5.027 6.822-8.121 9.617c-1.764 1.594-3.676 3.018-5.615 4.389c-0.223 0.149-0.401 0.269-0.561 0.4 c-0.987 0.595-2.015 1.123-3.042 1.645c1.662-0.869 0.251-0.384-0.766 0.053c-0.49-0.164-1.491-0.432-2.146-0.648 c0.24-0.013-1.417-1.139-1.679-1.385c-1.064-1-0.965-1.098-1.531-2.451c-0.688-1.643-0.893-3.337-0.833-5.038 c10.502-8.923 17.988-20.687 19.25-34.284c0.747-1.258 0.712-2.278 0.189-3.094c0.066-3.003-0.17-6.089-0.743-9.247 c-0.23-1.272-0.992-2.261-2.144-3c-21.245-26.783-74.184-8.663-95.198 8.863c-7.127 5.943-15.5 17.354-19.097 28.9 c-0.719 0.615-1.361 1.282-1.899 2.01c-2.988 4.041-6.229 7.955-10.031 11.26c-2.084 1.814-4.334 3.424-6.619 5 c0.398-0.271-3.525 1.788-3.635 1.951c-0.853 0.312-2.224 0.787-2.867 1.028c-1.021 0.129-1.957 0.247-0.315 0.1 c-0.005 0.003-0.009 0.005-0.013 0.007c-1.792 0.159-2.321 0.225-4.295-0.892c-11.998-6.787-4.413-22.376 4.392-34.702 c4.024-4.471 7.898-8.993 11.597-13.476c0.672-0.814 1.059-1.541 1.229-2.192c4.189-5.189-4.666-6.782-8.237-6.669 c-7.035 0.223-15.912 2.562-20.807 7.982c-2.589 2.866-6.144 7.074-9.769 11.997c-5.931 6.501-12.148 12.751-18.528 18.8 c-7.465 7.053-15.635 13.865-24.463 19.139c-1.179 0.704-5.433 2.038-6.341 2.679c-1.497-0.593-2.881-1.932-3.905-2.9 c-7.344-6.931-6.457-20.449-4.369-31.736c0.72-0.632 1.499-1.321 1.795-1.566c2.311-1.91 4.619-3.82 6.918-5.74 c7.463-6.23 14.734-12.664 21.912-19.219c15.643-14.291 30.467-29.693 41.531-47.861c7.977-13.098 11.861-30.031-1.881-40.643 c-12.801-9.883-34.459-0.162-45.08 8.727c-14.322 11.984-24.191 29.137-32.781 45.436c-10.078 19.117-18.1 39.736-22.461 60.9 c-0.913 4.442-1.761 9.31-2.153 14.249c-0.553 0.517-1.062 1.062-1.487 1.654c-4.213 5.855-10.537 12.123-16.197 14.6 c-4.598 2.041-1.67 1.111-6.266 1.73c1.838-0.248-1.266-0.131-1.627-0.164c-1.387-0.127-2.189-0.373-3.709-0.895 c-5.819-1.997-7.985-5.871-7.991-10.523c9.445-8.688 16.07-19.802 17.248-32.521c0.733-1.25 0.701-2.265 0.188-3.078 c0.066-3.005-0.169-6.092-0.743-9.252c-0.231-1.272-0.992-2.26-2.144-3c-21.244-26.784-74.184-8.664-95.198 8.9 c-7.129 5.944-15.504 17.359-19.099 28.872c-0.717 0.613-1.358 1.278-1.897 2.003c-5.287 7.105-12.859 14.434-20.08 17.6 c-5.254 2.301-6.209 3.262-13.434 0.133c-5.598-2.424-6.939-9.639-6.162-14.959c1.936-13.246 12.113-24.762 20.688-34.293 c0.616-0.685 1.013-1.31 1.229-1.88c2.253-0.024 4.508-0.038 6.767-0.038c6.799 0 16.199-2.621 20.805-7.982 c4.848-5.639-4.154-7.061-7.906-7.061c-17.188 0.002-34.15 0.723-51.301 1.801c-6.971 0.439-15.996 2.385-20.807 8 c-4.727 5.5 4 7.3 7.9 7.061c5.579-0.352 11.138-0.659 16.692-0.922c-0.759 0.604-1.465 1.255-2.101 2 c-6.299 6.999-15.741 19.415-20.43 31.551c-0.901 0.715-1.701 1.5-2.334 2.38c-4.213 5.855-10.535 12.123-16.195 14.6 c-4.6 2.041-1.67 1.111-6.268 1.73c1.84-0.248-1.264-0.131-1.625-0.164c-1.387-0.127-2.191-0.373-3.711-0.895 c-5.819-1.997-7.985-5.871-7.991-10.522c9.444-8.688 16.069-19.801 17.248-32.52c0.734-1.25 0.701-2.265 0.188-3.078 c0.067-3.005-0.168-6.093-0.742-9.253c-0.231-1.273-0.994-2.262-2.147-3.002c-21.244-26.78-74.186-8.661-95.199 8.9 C384.203 145.8 365.1 179.1 388.3 192.005z M969.51 184.442c-0.015-0.002-0.026-0.004-0.042-0.006 c0.256-0.077 0.563-0.172 0.93-0.29C970.031 184.3 969.7 184.4 969.5 184.442z M968.938 184.4 c-0.001 0.001-0.003 0.001-0.005 0.002c-0.091-0.013-0.177-0.024-0.281-0.038C968.764 184.3 968.9 184.4 968.9 184.361z M942.634 138.98c1.197 7 0.5 13.592-1.843 19.535c-1.572 2.5-3.072 5.111-4.389 7.753c-2.071 2.752-4.589 5.281-7.558 7.5 c-4.787 3.619-5.703 3.576-10.172 4.721c2.317-0.593-1.942-0.018-2.555 0.064c0.091-0.069-3.428-0.481-5.031-1.021 C887.535 169.6 919.4 110.4 942.6 138.98z M840.046 184.171c0.147-0.011 0.299-0.022 0.484-0.037 c-0.203 0.016-0.375 0.031-0.551 0.047C840.001 184.2 840 184.2 840 184.171z M782.324 82 c4.553-8.432 9.75-16.482 15.621-24.055c1.293-1.664 2.654-3.27 4.063-4.832c1.237 1.9 1.9 4 2.4 6.2 c1.547 7.229-2.537 15.174-5.842 21.312c-8.372 15.555-20.545 28.206-33.691 39.959C769.61 107.3 775.6 94.3 782.3 81.964z M664.533 138.978c2.38 13.845-2.554 26.323-13.787 34.817c-4.789 3.619-5.703 3.576-10.172 4.7 c2.317-0.593-1.942-0.018-2.557 0.064c0.093-0.069-3.426-0.481-5.029-1.021C609.434 169.6 641.3 110.4 664.5 138.978z M456.632 138.978c2.38 13.844-2.554 26.323-13.789 34.816c-4.787 3.619-5.701 3.576-10.17 4.7 c2.317-0.593-1.944-0.018-2.557 0.064c0.091-0.069-3.426-0.481-5.031-1.021C401.531 169.6 433.4 110.4 456.6 138.978z" class="style0"/><path d="M1006.097 354.593c-6.354 0.199-16.799 2.332-20.807 7.98c-2.406 3.387-5.027 6.822-8.121 9.6 c-1.764 1.594-3.676 3.018-5.615 4.389c-0.214 0.144-0.388 0.26-0.543 0.363c-0.992 0.599-2.025 1.131-3.059 1.7 c1.66-0.869 0.248-0.385-0.768 0.053c-0.49-0.164-1.488-0.432-2.144-0.646c0.231-0.019-1.419-1.142-1.681-1.384 c-1.064-1.002-0.965-1.098-1.531-2.455c-0.688-1.643-0.893-3.336-0.833-5.036c10.501-8.924 17.987-20.688 19.25-34.283 c0.747-1.259 0.712-2.279 0.189-3.096c0.066-3.004-0.17-6.089-0.743-9.247c-0.231-1.272-0.993-2.262-2.146-3.001 c-21.242-26.778-74.182-8.658-95.196 8.866c-14.146 11.795-33.213 45.137-10.057 58.035c17.415 9.7 40.2 5.9 59.27-1.135 c1.928 3.2 5.4 5.7 10.8 7.273c25.932 7.3 56.951-10.209 71.635-30.891C1018.103 355.9 1010.5 354.5 1006.1 354.6 z M916.673 372.916c2.317-0.595-1.943-0.019-2.555 0.064c0.089-0.069-3.428-0.481-5.031-1.021 c-23.553-7.933 8.314-67.126 31.547-38.576c1.197 7 0.5 13.589-1.843 19.531c-1.572 2.502-3.072 5.112-4.389 7.8 c-2.071 2.752-4.589 5.28-7.558 7.525C922.058 371.8 921.1 371.8 916.7 372.916z M966.936 378.8 c-0.002 0.001-0.004 0.002-0.005 0.003c-0.091-0.013-0.176-0.024-0.279-0.038C966.763 378.7 966.8 378.8 966.9 378.761z M967.51 378.842c-0.015-0.002-0.027-0.004-0.043-0.006c0.256-0.076 0.563-0.172 0.931-0.29 C968.031 378.7 967.7 378.8 967.5 378.842z M970.542 377.257C970.342 377.4 970.3 377.4 970.5 377.3 L970.542 377.257z" class="style0"/><path d="M517.223 310.61c-20.384 1.266-41.213 10.818-54.778 23.899c-3.894 3.755-6.896 8.652-8.885 14 c-2.764 2.771-5.566 5.501-8.404 8.184c-7.463 7.053-15.633 13.863-24.465 19.141c-1.176 0.703-5.43 2.037-6.339 2.7 c-1.497-0.594-2.88-1.934-3.905-2.901c-7.342-6.93-6.456-20.448-4.368-31.736c0.72-0.632 1.499-1.319 1.794-1.564 c2.309-1.912 4.621-3.82 6.92-5.74c7.461-6.23 14.734-12.664 21.91-19.219c15.645-14.291 30.467-29.693 41.531-47.861 c7.975-13.098 11.863-30.031-1.881-40.641c-12.801-9.885-34.457-0.166-45.08 8.725c-14.322 11.984-24.189 29.137-32.781 45.4 c-10.078 19.119-18.098 39.738-22.459 60.936c-2.838 13.795-5.062 31.7 5.1 43.084c13.391 15 41.9 4 56.078-3.416 c5.132-2.679 10.111-5.776 14.952-9.167c2.408 8.5 8 15.6 17.3 18.712c24.15 8.1 54.918-6.256 72.258-22.646 c18.256-17.252 26.631-42.807 13.352-65.596C549.66 295.7 524 303.2 517.2 310.61z M432.023 273.7 c4.555-8.432 9.75-16.482 15.623-24.053c1.292-1.665 2.653-3.27 4.062-4.833c1.237 1.9 1.9 4 2.4 6.2 c1.547 7.227-2.539 15.174-5.842 21.311c-8.374 15.555-20.547 28.205-33.693 39.96C419.31 299 425.3 286 432 273.664z M497.345 377.074c0.308-0.224 0.639-0.395 0.989-0.522C498.005 376.7 497.7 376.9 497.3 377.074z M517.287 357.6 c-2.832 5.643-7.488 10.711-12.334 14.684c-1.704 1.397-3.446 2.526-5.296 3.566c-0.323 0.068-0.619 0.153-0.716 0.2 c-7.229-1.678-9.504-21.313-8.176-28.613c2.736-15.021 12.426-20.693 25.314-14.391c1.491 0.7 3.6 1 6.1 0.9 C522.905 341.8 521.3 349.6 517.3 357.585z" class="style0"/><path d="M879.273 295.38c-8.184 0.258-20.684 2.979-26.01 9.977c-11.096 14.579-21.442 29.737-32.21 44.6 c-4.117-14.476-8.406-28.907-13.085-43.185c-3.727-11.383-42.584-0.102-39.117 10.482c7.971 24.3 14.8 49.1 21.6 73.8 c3.322 12.1 32.727-0.537 37.508-5.818c22.77-25.152 40.703-54.066 61.201-81C894.587 297.1 884.5 295.2 879.3 295.38z" class="style0"/><path d="M676.773 295.38c-8.184 0.258-20.684 2.979-26.01 9.977c-11.096 14.579-21.442 29.737-32.21 44.6 c-4.117-14.476-8.406-28.907-13.085-43.185c-3.727-11.383-42.584-0.102-39.117 10.482c7.971 24.3 14.8 49.1 21.6 73.8 c3.322 12.1 32.727-0.537 37.508-5.818c22.77-25.152 40.703-54.066 61.201-81C692.087 297.1 682 295.2 676.8 295.38z" class="style0"/><path d="M767.117 366.945c-6.062-5.172-19.244-1.719-25.527 0.984c-3.43 1.477-6.885 2.877-10.381 4.2 c-0.438 0.163-2.403 0.833-3.084 1.078c-0.856 0.255-1.715 0.503-2.574 0.746c-0.811 0.229-1.627 0.438-2.445 0.6 c-0.602 0.136-1.305 0.289-1.691 0.357c-0.515 0.09-1.032 0.165-1.549 0.237c-0.55 0.056-1.259 0.122-1.674 0.1 c-0.282 0.012-0.758 0.009-1.204 0.003c-0.458-0.048-0.916-0.104-1.374-0.159c-0.366-0.045-0.633-0.072-0.828-0.086 c-0.243-0.11-0.67-0.274-1.379-0.518c-0.45-0.154-0.888-0.34-1.323-0.532c-0.279-0.141-0.6-0.309-0.784-0.429 c-1.326-0.859-2.48-1.953-3.535-3.121c-1.896-2.107-0.314-0.061-1.301-1.943c-0.48-0.92-0.855-1.896-1.181-2.884 c8.741-1.482 16.739-4.587 24.878-8.583c3.791-1.861 7.494-3.908 11.232-5.869c1.783-0.937 3.582-1.837 5.389-2.728 c0.297-0.124 0.711-0.299 1.27-0.536c0.167-0.061 0.312-0.114 0.456-0.167c7.615-1.909 19.547-5.941 18.063-13.12 c-3.367-16.314-10.723-35.533-30.064-36.592c-21.689-1.189-42.611 9.162-55.719 26.264c-9.33 12.176-15.686 26.912-15.975 42.4 c-0.305 16.2 12 25.2 27 27.068c21.635 2.7 44.656-5.102 64.209-13.51 C759.068 378.9 773.4 372.3 767.1 366.945z M713.195 316.703c-1.865-0.005-1.2-0.113-0.244-0.067 C713.042 316.7 713.1 316.7 713.2 316.703z M712.501 316.503c0.082 0 0.1 0 0.2 0.1 C709.805 316.1 711.4 316.2 712.5 316.503z M708.9 336.72c3.141-7.421 4.69-10 9.387-15.608 c3.604 4.3 6.1 11.2 7.8 17.912c-1.394 0.636-2.788 1.29-4.19 1.979c-3.865 1.9-7.643 3.979-11.455 6 c-1.157 0.607-2.328 1.186-3.497 1.77c-0.679 0.139-1.357 0.29-2.035 0.456c0.134-0.62 0.27-1.239 0.417-1.856 C706.164 343.7 707.4 340.2 708.9 336.72z M712.488 374.218C712.682 374.3 712.6 374.3 712.5 374.218L712.488 374.218z " class="style0"/><circle cx="862.4" cy="87" r="13.5" class="style0"/><path d="M582.144 104.986c9.645-19.18 19.814-38.092 28.797-57.6c8.67-18.83-19.311-35.197-28.059-16.201 c-8.984 19.51-19.15 38.42-28.799 57.602C544.732 107.4 572.7 123.7 582.1 104.986z" class="style0"/><g display="none"><g display="inline"><path d="M617.857 233.08c26.498 0 53 0 79.5 0c7.749 0 7.817-12.002 0.086-12.002 c-26.498 0-52.997 0-79.496 0C610.194 221.1 610.1 233.1 617.9 233.08L617.857 233.08z" class="style0"/></g></g><g display="none"><g display="inline"><path d="M617.857 203.08c26.498 0 53 0 79.5 0c7.749 0 7.817-12.003 0.086-12.003 c-26.498 0-52.997 0-79.496 0C610.194 191.1 610.1 203.1 617.9 203.08L617.857 203.08z" class="style0"/></g></g><g display="none"><g display="inline"><path d="M617.857 173.08c26.498 0 53 0 79.5 0c7.749 0 7.817-12.003 0.086-12.003 c-26.498 0-52.997 0-79.496 0C610.194 161.1 610.1 173.1 617.9 173.08L617.857 173.08z" class="style0"/></g></g></svg>